<svg width="303" height="62" viewBox="0 0 303 62" fill="none" xmlns="http://www.w3.org/2000/svg">
<g clip-path="url(#clip0_8_248)">
<path d="M61.8444 17.2556L35.3495 0V9.64768L52.3463 20.6185L50.3468 26.9033H35.3495V34.897H50.3468L52.3463 41.1818L35.3495 52.1525V61.8005L61.8444 44.6L57.5118 30.9278L61.8444 17.2556Z" fill="url(#paint0_linear_8_248)"/>
<path d="M12.2984 34.897H27.24V26.9033H12.2429L10.2988 20.6185L27.24 9.64768V0L0.745056 17.2556L5.07757 30.9278L0.745056 44.6L27.2955 61.8005V52.1525L10.2988 41.1818L12.2984 34.897Z" fill="url(#paint1_linear_8_248)"/>
<mask id="mask0_8_248" style="mask-type:alpha" maskUnits="userSpaceOnUse" x="0" y="0" width="62" height="62">
<path d="M61.8444 17.2556L35.3495 0V9.64768L52.3463 20.6185L50.3468 26.9033H35.3495V34.897H50.3468L52.3463 41.1818L35.3495 52.1525V61.8005L61.8444 44.6L57.5121 30.9278L61.8444 17.2556Z" fill="url(#paint2_linear_8_248)"/>
<path d="M12.2984 34.897H27.24V26.9033H12.2429L10.2989 20.6185L27.24 9.64768V0L0.745117 17.2556L5.07761 30.9278L0.745117 44.6L27.2956 61.8005V52.1525L10.2989 41.1818L12.2984 34.897Z" fill="url(#paint3_linear_8_248)"/>
</mask>
<g mask="url(#mask0_8_248)">
<path d="M61.4392 0H0.77771V61.8005H61.4392V0Z" fill="url(#paint4_linear_8_248)"/>
</g>
<path d="M114.557 16.9951V22.398H89.4901V27.9265H110.789V33.3293H89.4901V39.4023H114.557V44.8053H83.0596V16.9951H114.557Z" fill="white"/>
<path d="M118.112 44.8053L132.514 30.7325L118.52 16.9951H127.373L137.247 26.9213L146.712 16.9951H154.994L141.041 30.7325L155.442 44.8053H146.507L137.247 34.5859L126.68 44.8053H118.112Z" fill="white"/>
<path d="M172.712 16.9951C184.38 16.9951 191.397 22.799 191.397 30.9002C191.397 39.0014 184.38 44.8053 172.712 44.8053C161.044 44.8053 154.067 39.0014 154.067 30.9002C154.067 22.799 161.044 16.9951 172.712 16.9951ZM172.712 22.1944C165.695 22.1944 160.522 25.7009 160.522 30.9002C160.522 36.0995 165.695 39.6061 172.712 39.6061C179.769 39.6061 184.941 36.0995 184.941 30.9002C184.941 25.7009 179.769 22.1944 172.712 22.1944Z" fill="white"/>
<path d="M214.656 16.9951C224.001 16.9951 229.632 22.1467 229.632 30.8583C229.632 39.6536 224.042 44.8053 214.737 44.8053H195.802V16.9951H214.656ZM223.021 30.8583C223.021 25.4135 219.757 22.398 213.839 22.398H202.209V39.4023H213.839C219.757 39.4023 223.021 36.345 223.021 30.8583Z" fill="white"/>
<path d="M250.823 44.8053C240.982 44.8053 233.519 40.3687 233.519 32.1941V16.9951H239.957V31.578C239.957 36.6307 245.246 38.9722 250.823 38.9722C256.441 38.9722 261.73 36.6716 261.73 31.578V16.9951H268.127V32.1941C268.127 40.3687 260.705 44.8053 250.823 44.8053Z" fill="white"/>
<path d="M286.148 44.8053C280.861 44.8053 275.162 43.838 271.114 42.0244L273.22 36.8651C276.855 38.5178 281.853 39.5657 286.355 39.5657C291.518 39.5657 296.35 38.4774 296.35 36.5428C296.35 35.1321 294.822 34.5275 291.641 34.0438L282.637 33.0765C275.698 32.1495 272.312 29.7717 272.312 25.58C272.312 20.1792 278.053 16.9951 286.479 16.9951C291.559 16.9951 298.539 17.9221 302.133 19.5343L300.026 24.4515C296.474 23.0005 290.444 22.275 286.19 22.275C281.811 22.275 278.92 23.2826 278.92 25.1367C278.92 26.4264 280.366 27.0713 284.083 27.5952L292.839 28.5625C299.53 29.4895 303 31.7465 303 36.1398C303 41.7017 295.648 44.8053 286.148 44.8053Z" fill="white"/>
</g>
<defs>
<linearGradient id="paint0_linear_8_248" x1="53.2735" y1="66.0493" x2="35.7498" y2="-6.84074" gradientUnits="userSpaceOnUse">
<stop stop-color="#0B46F9"/>
<stop offset="1" stop-color="#BBFBE0"/>
</linearGradient>
<linearGradient id="paint1_linear_8_248" x1="53.2734" y1="66.0493" x2="35.7498" y2="-6.84074" gradientUnits="userSpaceOnUse">
<stop stop-color="#0B46F9"/>
<stop offset="1" stop-color="#BBFBE0"/>
</linearGradient>
<linearGradient id="paint2_linear_8_248" x1="53.2735" y1="66.0493" x2="35.7498" y2="-6.84074" gradientUnits="userSpaceOnUse">
<stop stop-color="#0B46F9"/>
<stop offset="1" stop-color="#BBFBE0"/>
</linearGradient>
<linearGradient id="paint3_linear_8_248" x1="53.2734" y1="66.0493" x2="35.7498" y2="-6.84074" gradientUnits="userSpaceOnUse">
<stop stop-color="#0B46F9"/>
<stop offset="1" stop-color="#BBFBE0"/>
</linearGradient>
<linearGradient id="paint4_linear_8_248" x1="4.66626" y1="13.9051" x2="35.2377" y2="36.891" gradientUnits="userSpaceOnUse">
<stop offset="0.119792" stop-color="#8952FF" stop-opacity="0.87"/>
<stop offset="1" stop-color="#DABDFF" stop-opacity="0"/>
</linearGradient>
<clipPath id="clip0_8_248">
<rect width="303" height="62" fill="white"/>
</clipPath>
</defs>
</svg>
